<svg xmlns="http://www.w3.org/2000/svg" viewBox="0 0 1024 1024" role="img" aria-labelledby="title desc">
  <title id="title">PiDeal logo</title>
  <desc id="desc">PiDeal digital services marketplace logo in purple and gold.</desc>
  <defs>
    <linearGradient id="purple" x1="263" y1="184" x2="772" y2="673" gradientUnits="userSpaceOnUse">
      <stop offset="0" stop-color="#8b22d6"/>
      <stop offset="0.55" stop-color="#5b26b7"/>
      <stop offset="1" stop-color="#2e176d"/>
    </linearGradient>
    <linearGradient id="gold" x1="272" y1="340" x2="612" y2="690" gradientUnits="userSpaceOnUse">
      <stop offset="0" stop-color="#ffd640"/>
      <stop offset="1" stop-color="#f28a21"/>
    </linearGradient>
    <filter id="softShadow" x="-20%" y="-20%" width="140%" height="140%" color-interpolation-filters="sRGB">
      <feDropShadow dx="0" dy="8" stdDeviation="10" flood-color="#24133d" flood-opacity="0.14"/>
    </filter>
  </defs>

  <g filter="url(#softShadow)">
    <path
      fill="url(#purple)"
      d="M382 176h224c99 0 179 80 179 179 0 84-59 157-140 175l-35 8c-16 4-28 16-32 32l-15 60c-11 45-67 61-101 30l-55-50c-17-15-26-37-26-60V437h95c16 0 29-13 29-29v-52c0-38 31-69 69-69h29c38 0 69 31 69 69s-31 69-69 69h-69c-22 0-42 18-42 42v52c0 24 18 42 42 42h83c115 0 209-93 209-208S733 145 618 145H382c-23 0-42 19-42 42v248h42V176z"
    />
    <path
      fill="url(#purple)"
      d="M382 176h224c99 0 179 80 179 179 0 84-59 157-140 175l-35 8c-16 4-28 16-32 32l-15 60c-11 45-67 61-101 30l-55-50c-17-15-26-37-26-60V437h95c16 0 29-13 29-29v-52c0-38 31-69 69-69h29c38 0 69 31 69 69s-31 69-69 69h-69c-22 0-42 18-42 42v52c0 24 18 42 42 42h83c115 0 209-93 209-208S733 145 618 145H382c-23 0-42 19-42 42v248h42V176z"
      opacity="0.96"
    />
    <circle cx="574" cy="356" r="111" fill="#ffffff"/>
    <circle cx="574" cy="356" r="70" fill="url(#gold)"/>
    <g fill="#56209b">
      <rect x="538" y="327" width="18" height="18" rx="2"/>
      <rect x="565" y="327" width="18" height="18" rx="2"/>
      <path d="M529 360c0-9 7-16 16-16h62v-15h20v23c0 18-14 32-32 32h-4v68h-22v-68h-22v68h-22v-68h-20v-24h24z"/>
    </g>
    <path
      fill="url(#gold)"
      d="M384 467h63c16 0 31 10 37 25l39 99c7 18-6 38-26 38h-17c-23 0-44-14-53-35l-49-127h6z"
    />
    <rect x="248" y="438" width="82" height="23" rx="11.5" fill="url(#gold)"/>
    <rect x="218" y="480" width="128" height="23" rx="11.5" fill="url(#gold)"/>
    <rect x="258" y="522" width="88" height="23" rx="11.5" fill="url(#gold)"/>
    <circle cx="452" cy="658" r="23" fill="#56209b"/>
    <circle cx="544" cy="658" r="23" fill="#56209b"/>
  </g>

  <g text-anchor="middle">
    <text x="512" y="795" font-family="Inter, Arial, Helvetica, sans-serif" font-size="134" font-weight="800" letter-spacing="0">
      <tspan fill="#6421b5">Pi</tspan><tspan fill="#10122f">Deal</tspan>
    </text>
    <circle cx="359" cy="735" r="14" fill="#ffc234"/>
    <g fill="none" stroke-linecap="round" stroke-width="4">
      <path d="M184 852h54" stroke="#6421b5"/>
      <path d="M786 852h54" stroke="#f3a625"/>
    </g>
    <text x="512" y="859" fill="#67686c" font-family="Inter, Arial, Helvetica, sans-serif" font-size="22" font-weight="700" letter-spacing="12">
      DIGITAL SERVICES. REAL VALUE.
    </text>
  </g>
</svg>
